<?xml version="1.0" encoding="UTF-8" standalone="no"?>
<!-- Created with Inkscape (http://www.inkscape.org/) -->

<svg
   width="1000"
   height="500"
   viewBox="0 0 1000 500.00002"
   version="1.1"
   id="svg5"
   inkscape:version="1.3 (0e150ed6c4, 2023-07-21)"
   sodipodi:docname="iso.svg"
   xmlns:inkscape="http://www.inkscape.org/namespaces/inkscape"
   xmlns:sodipodi="http://sodipodi.sourceforge.net/DTD/sodipodi-0.dtd"
   xmlns="http://www.w3.org/2000/svg"
   xmlns:svg="http://www.w3.org/2000/svg">
  <sodipodi:namedview
     id="namedview7"
     pagecolor="#fafafa"
     bordercolor="#424242"
     borderopacity="1"
     inkscape:showpageshadow="2"
     inkscape:pageopacity="0"
     inkscape:pagecheckerboard="0"
     inkscape:deskcolor="#d1d1d1"
     inkscape:document-units="px"
     showgrid="false"
     inkscape:zoom="0.32143362"
     inkscape:cx="379.54959"
     inkscape:cy="-59.110182"
     inkscape:window-width="1366"
     inkscape:window-height="745"
     inkscape:window-x="1358"
     inkscape:window-y="-7"
     inkscape:window-maximized="1"
     inkscape:current-layer="layer1" />
  <defs
     id="defs2" />
  <g
     inkscape:label="Layer 1"
     inkscape:groupmode="layer"
     id="layer1">
    <path
       id="path1"
       d="M 310.26732,5.075659 H 777.40073 V 494.92434 H 310.26732 V 281.43187 h 304.65811"
       style="fill:none;stroke:#231f20;stroke-width:10.1513;stroke-linecap:butt;stroke-linejoin:miter;stroke-miterlimit:10;stroke-dasharray:none;stroke-opacity:1"
       inkscape:export-filename="iso.webp"
       inkscape:export-xdpi="15.703988"
       inkscape:export-ydpi="15.703988" />
    <path
       id="path2"
       d="M 5.0851353,495.05529 5.075659,4.7924377"
       style="fill:none;stroke:#231f20;stroke-width:10.1513;stroke-linecap:butt;stroke-linejoin:miter;stroke-miterlimit:10;stroke-dasharray:none;stroke-opacity:1" />
    <path
       id="path3"
       d="M 83.147822,245.47964 H 96.43178 V 159.25685 H 83.147822 Z m 42.387718,0 h 12.07849 v -65.93601 l 51.56556,66.90356 h 8.69206 V 159.25685 H 185.6742 v 64.73053 l -50.598,-64.97639 h -9.54066 z m 95.16072,-6.51906 c 6.88387,5.19463 17.02725,7.97038 29.10575,7.97038 10.62717,0 18.96234,-2.41887 23.91111,-6.88387 4.34605,-3.98914 7.00284,-10.87301 7.00284,-18.35962 0,-6.40007 -2.05407,-11.83262 -5.79736,-15.69488 -4.34604,-4.34604 -9.17584,-7.00283 -20.1599,-10.99198 -8.09726,-2.89471 -10.5082,-4.10812 -13.41084,-6.4001 -2.6568,-2.17301 -4.34604,-5.5515 -4.34604,-9.17583 0,-6.76492 5.43254,-10.87303 14.73528,-10.87303 7.00282,0 12.68123,1.57029 19.08132,5.07566 l 4.46499,-9.42169 c -7.48661,-4.34603 -14.9732,-6.28113 -24.03008,-6.28113 -16.17867,0 -26.08415,8.45414 -26.08415,22.46772 0,12.19746 6.4001,19.31925 23.42736,25.83829 12.07848,4.47294 12.19745,4.5919 15.21904,7.00283 2.89472,2.29991 4.465,5.79736 4.465,9.78651 0,8.57311 -6.51905,13.28395 -18.35961,13.28395 -9.89754,0 -18.59754,-2.53782 -24.51385,-7.36763 z m 95.64647,-26.44894 h 11.59472 c 8.81897,0 15.45697,-1.45132 20.16783,-4.59189 6.7649,-4.22707 10.5082,-12.19744 10.5082,-21.97603 0,-8.93791 -3.14056,-16.30556 -8.93793,-20.88952 -5.07566,-3.98914 -12.31641,-5.79735 -23.42736,-5.79735 h -22.70565 v 86.22279 h 12.80019 z m 0,-10.26236 V 169.5192 h 9.66755 c 6.75697,0 10.74614,0.84858 13.40292,2.77575 3.74331,2.78368 6.03529,7.85142 6.03529,13.64877 0,5.07566 -1.80821,9.77859 -4.94877,12.68122 -3.02162,2.65679 -6.76492,3.62434 -14.48944,3.62434 z m 64.00687,43.23036 h 13.28396 V 159.25685 H 380.3496 Z m 55.1879,-36.83027 h 6.40009 l 27.41651,36.83027 h 14.2515 l -29.34367,-38.76535 c 4.94877,-0.7217 10.38132,-2.53784 14.12462,-4.71086 6.16216,-3.37849 9.77857,-10.26234 9.77857,-18.47064 0,-8.09728 -3.01367,-14.85425 -8.69207,-18.96236 -4.94877,-3.74329 -11.95159,-5.31358 -22.70565,-5.31358 h -24.03008 v 86.22279 h 12.80018 z m 0,-9.7865 V 169.5192 h 11.11095 c 6.40008,0 10.02442,0.72963 12.68122,2.53784 3.37848,2.41887 5.67839,7.12178 5.67839,11.9516 0,4.35395 -1.9351,8.81895 -4.9567,11.35679 -2.77575,2.53782 -6.75697,3.49744 -14.12462,3.49744 z m 122.81712,25.72725 8.21622,20.88952 h 13.52189 l -35.86272,-87.07137 h -9.90546 l -35.86273,87.07137 h 13.52189 l 8.20828,-20.88952 z m -2.77574,-10.14338 h -32.60321 l 16.29765,-41.54112 z m 50.47903,31.0329 h 13.40292 v -75.59562 h 22.82461 v -10.62717 h -59.17111 v 10.62717 h 22.94358 z m 99.26883,-20.88952 8.21622,20.88952 h 13.52187 l -35.86269,-87.07137 h -9.90552 l -35.86269,87.07137 h 13.52187 l 8.20831,-20.88952 z m -2.77578,-10.14338 h -32.60315 l 16.29758,-41.54112 z m 0,0"
       style="fill:#231f20;fill-opacity:1;fill-rule:nonzero;stroke:none;stroke-width:0.676753"
       aria-label="INSPIRATA" />
    <path
       id="path4"
       d="m 366.34594,361.401 12.75259,0.0317 -0.008,2.37921 c -0.0238,9.35825 -5.13118,14.18806 -14.98905,14.15633 -6.2177,-0.0158 -10.73027,-1.98267 -14.10876,-6.00354 -2.93436,-3.59263 -4.43328,-8.12107 -4.41741,-13.52189 0.0397,-11.73747 7.59762,-19.4382 18.96235,-19.40647 5.40082,0.0158 10.16718,1.47511 14.0453,4.36982 l 1.832,-2.94229 c -4.32224,-3.28332 -9.90546,-4.99635 -16.1866,-5.01222 -13.81531,-0.0397 -23.07839,9.22342 -23.11804,23.10219 -0.0158,6.59836 1.91923,11.99919 5.8608,16.22625 4.19534,4.52844 9.71513,6.74112 17.05897,6.76492 7.97831,0.0238 14.07704,-2.84715 17.04312,-7.98624 1.51477,-2.69645 2.46646,-7.34385 2.48232,-12.17366 l 0.008,-3.26746 -17.20967,-0.0475 z m 45.3558,-0.74548 3.64018,0.008 16.20247,20.45332 4.82982,0.0158 -16.76556,-20.96091 c 3.52125,-0.23792 6.09079,-0.80099 8.2321,-1.72889 3.71157,-1.68924 5.9163,-5.51186 5.93217,-10.15925 0.0161,-4.08433 -1.48304,-7.35971 -4.29845,-9.43756 -2.38715,-1.76856 -5.77357,-2.58542 -10.9206,-2.60127 l -10.99197,-0.0317 -0.13498,44.83236 4.21122,0.0158 z m 0.008,-3.39435 0.0477,-17.51897 6.46353,0.0158 c 3.76709,0.0158 5.9639,0.38861 7.53419,1.40375 2.31578,1.45132 3.69571,4.15569 3.68778,7.23281 -0.008,2.82334 -1.2134,5.40082 -3.21988,6.96318 -1.76854,1.37995 -4.15569,1.9351 -8.54931,1.91923 z m 65.87453,-21.47242 c -13.18878,-0.0397 -22.70565,9.47721 -22.7453,22.666 -0.0398,13.93428 9.10447,23.38769 22.67393,23.42734 13.18086,0.0397 22.5629,-9.47721 22.60255,-22.98323 0.0397,-13.56153 -9.22343,-23.07046 -22.53118,-23.11011 z m -0.008,3.58469 c 10.80164,0.0317 18.12169,7.89106 18.08206,19.50956 -0.0321,11.55506 -7.39939,19.45407 -18.20104,19.42233 -10.99197,-0.0317 -18.18513,-7.84347 -18.15341,-19.77128 0.0397,-11.37264 7.47074,-19.19234 18.27238,-19.16061 z m 46.6029,-2.81741 -0.0792,26.62344 c -0.016,5.90045 0.53136,9.6041 1.78442,11.99918 2.44266,4.52844 7.26455,6.868 14.1722,6.88387 6.40802,0.0238 10.92853,-1.9113 13.58532,-5.79737 1.76063,-2.63299 2.45852,-6.2732 2.48232,-12.99051 l 0.0792,-26.62342 -4.33018,-0.0158 -0.0872,28.19371 c -0.008,4.39361 -0.3886,6.78076 -1.40373,8.66034 -1.76856,3.32297 -5.16291,5.01221 -10.31787,4.99636 -4.71085,-0.0158 -7.89899,-1.40375 -9.84203,-4.24294 -1.31649,-2.00647 -1.80819,-4.52051 -1.79234,-9.47721 l 0.0872,-28.19371 z m 62.47226,26.74835 6.46354,0.0158 c 4.40156,0.0158 7.72454,-0.72963 9.99271,-2.16509 3.45781,-2.18888 5.35324,-6.13838 5.36911,-11.03956 0.008,-4.45706 -1.54649,-8.16864 -4.42535,-10.50027 -2.45059,-1.95888 -5.95598,-2.8392 -11.29335,-2.85506 l -10.23855,-0.0318 -0.13497,44.83237 4.21121,0.0158 z m 0.008,-3.52124 0.0556,-19.52544 5.71011,0.0158 c 3.95742,0.008 6.21768,0.45204 7.91486,1.59407 2.44265,1.64166 3.81468,4.65533 3.80675,8.16864 -0.008,3.26746 -1.14996,5.9639 -3.22781,7.7166 -1.76855,1.4989 -4.09226,2.06198 -8.54932,2.04612 z M 83.399961,119.66471 l 4.338101,0.008 0.118996,-41.255619 12.744672,0.03966 0.016,-3.576742 -29.764003,-0.08718 -0.01597,3.576756 12.681222,0.03939 z m 48.793769,0.1385 4.3381,0.0162 0.0635,-21.603295 24.29973,0.07134 -0.0635,21.603285 4.33018,0.008 0.13497,-44.832352 -4.33018,-0.0081 -0.0634,19.652328 -24.29973,-0.07134 0.0634,-19.652327 -4.3381,-0.01625 z m 69.95885,0.20621 24.49008,0.0716 0.008,-3.57675 -20.2154,-0.0555 0.0552,-18.026535 17.39208,0.04792 0.008,-3.576756 -17.39208,-0.04792 0.0475,-16.075571 19.462,0.05537 0.016,-3.576757 -23.73665,-0.07134 z m 0,0"
       style="fill:#231f20;fill-opacity:1;fill-rule:nonzero;stroke:none;stroke-width:0.676753"
       aria-label="GR&#10;OUP&#10;T&#10;HE" />
    <rect
       style="fill:#ffffff;stroke-width:4.89253;stroke-linecap:square;stroke-linejoin:round"
       id="rect1"
       width="928.33807"
       height="644.53076"
       x="-59.06271"
       y="-77.244362"
       ry="0" />
    <path
       id="path5"
       d="M 310.26732,5.075659 H 777.40073 V 494.92434 H 310.26732 V 281.43187 h 304.65811"
       style="fill:none;stroke:#231f20;stroke-width:10.1513;stroke-linecap:butt;stroke-linejoin:miter;stroke-miterlimit:10;stroke-dasharray:none;stroke-opacity:1" />
    <path
       id="path6"
       d="M 5.0851353,495.05529 5.075659,4.7924377"
       style="fill:none;stroke:#231f20;stroke-width:10.1513;stroke-linecap:butt;stroke-linejoin:miter;stroke-miterlimit:10;stroke-dasharray:none;stroke-opacity:1" />
    <path
       id="path7"
       d="M 83.147822,245.47964 H 96.43178 V 159.25685 H 83.147822 Z m 42.387718,0 h 12.07849 v -65.93601 l 51.56556,66.90356 h 8.69206 V 159.25685 H 185.6742 v 64.73053 l -50.598,-64.97639 h -9.54066 z m 95.16072,-6.51906 c 6.88387,5.19463 17.02725,7.97038 29.10575,7.97038 10.62717,0 18.96234,-2.41887 23.91111,-6.88387 4.34605,-3.98914 7.00284,-10.87301 7.00284,-18.35962 0,-6.40007 -2.05407,-11.83262 -5.79736,-15.69488 -4.34604,-4.34604 -9.17584,-7.00283 -20.1599,-10.99198 -8.09726,-2.89471 -10.5082,-4.10812 -13.41084,-6.4001 -2.6568,-2.17301 -4.34604,-5.5515 -4.34604,-9.17583 0,-6.76492 5.43254,-10.87303 14.73528,-10.87303 7.00282,0 12.68123,1.57029 19.08132,5.07566 l 4.46499,-9.42169 c -7.48661,-4.34603 -14.9732,-6.28113 -24.03008,-6.28113 -16.17867,0 -26.08415,8.45414 -26.08415,22.46772 0,12.19746 6.4001,19.31925 23.42736,25.83829 12.07848,4.47294 12.19745,4.5919 15.21904,7.00283 2.89472,2.29991 4.465,5.79736 4.465,9.78651 0,8.57311 -6.51905,13.28395 -18.35961,13.28395 -9.89754,0 -18.59754,-2.53782 -24.51385,-7.36763 z m 95.64647,-26.44894 h 11.59472 c 8.81897,0 15.45697,-1.45132 20.16783,-4.59189 6.7649,-4.22707 10.5082,-12.19744 10.5082,-21.97603 0,-8.93791 -3.14056,-16.30556 -8.93793,-20.88952 -5.07566,-3.98914 -12.31641,-5.79735 -23.42736,-5.79735 h -22.70565 v 86.22279 h 12.80019 z m 0,-10.26236 V 169.5192 h 9.66755 c 6.75697,0 10.74614,0.84858 13.40292,2.77575 3.74331,2.78368 6.03529,7.85142 6.03529,13.64877 0,5.07566 -1.80821,9.77859 -4.94877,12.68122 -3.02162,2.65679 -6.76492,3.62434 -14.48944,3.62434 z m 64.00687,43.23036 h 13.28396 V 159.25685 H 380.3496 Z m 55.1879,-36.83027 h 6.40009 l 27.41651,36.83027 h 14.2515 l -29.34367,-38.76535 c 4.94877,-0.7217 10.38132,-2.53784 14.12462,-4.71086 6.16216,-3.37849 9.77857,-10.26234 9.77857,-18.47064 0,-8.09728 -3.01367,-14.85425 -8.69207,-18.96236 -4.94877,-3.74329 -11.95159,-5.31358 -22.70565,-5.31358 h -24.03008 v 86.22279 h 12.80018 z m 0,-9.7865 V 169.5192 h 11.11095 c 6.40008,0 10.02442,0.72963 12.68122,2.53784 3.37848,2.41887 5.67839,7.12178 5.67839,11.9516 0,4.35395 -1.9351,8.81895 -4.9567,11.35679 -2.77575,2.53782 -6.75697,3.49744 -14.12462,3.49744 z m 122.81712,25.72725 8.21622,20.88952 h 13.52189 l -35.86272,-87.07137 h -9.90546 l -35.86273,87.07137 h 13.52189 l 8.20828,-20.88952 z m -2.77574,-10.14338 h -32.60321 l 16.29765,-41.54112 z m 50.47903,31.0329 h 13.40292 v -75.59562 h 22.82461 v -10.62717 h -59.17111 v 10.62717 h 22.94358 z m 99.26883,-20.88952 8.21622,20.88952 h 13.52187 l -35.86269,-87.07137 h -9.90552 l -35.86269,87.07137 h 13.52187 l 8.20831,-20.88952 z m -2.77578,-10.14338 h -32.60315 l 16.29758,-41.54112 z m 0,0"
       style="fill:#231f20;fill-opacity:1;fill-rule:nonzero;stroke:none;stroke-width:0.676753"
       aria-label="INSPIRATA" />
    <path
       id="path8"
       d="m 366.34594,361.401 12.75259,0.0317 -0.008,2.37921 c -0.0238,9.35825 -5.13118,14.18806 -14.98905,14.15633 -6.2177,-0.0158 -10.73027,-1.98267 -14.10876,-6.00354 -2.93436,-3.59263 -4.43328,-8.12107 -4.41741,-13.52189 0.0397,-11.73747 7.59762,-19.4382 18.96235,-19.40647 5.40082,0.0158 10.16718,1.47511 14.0453,4.36982 l 1.832,-2.94229 c -4.32224,-3.28332 -9.90546,-4.99635 -16.1866,-5.01222 -13.81531,-0.0397 -23.07839,9.22342 -23.11804,23.10219 -0.0158,6.59836 1.91923,11.99919 5.8608,16.22625 4.19534,4.52844 9.71513,6.74112 17.05897,6.76492 7.97831,0.0238 14.07704,-2.84715 17.04312,-7.98624 1.51477,-2.69645 2.46646,-7.34385 2.48232,-12.17366 l 0.008,-3.26746 -17.20967,-0.0475 z m 45.3558,-0.74548 3.64018,0.008 16.20247,20.45332 4.82982,0.0158 -16.76556,-20.96091 c 3.52125,-0.23792 6.09079,-0.80099 8.2321,-1.72889 3.71157,-1.68924 5.9163,-5.51186 5.93217,-10.15925 0.0161,-4.08433 -1.48304,-7.35971 -4.29845,-9.43756 -2.38715,-1.76856 -5.77357,-2.58542 -10.9206,-2.60127 l -10.99197,-0.0317 -0.13498,44.83236 4.21122,0.0158 z m 0.008,-3.39435 0.0477,-17.51897 6.46353,0.0158 c 3.76709,0.0158 5.9639,0.38861 7.53419,1.40375 2.31578,1.45132 3.69571,4.15569 3.68778,7.23281 -0.008,2.82334 -1.2134,5.40082 -3.21988,6.96318 -1.76854,1.37995 -4.15569,1.9351 -8.54931,1.91923 z m 65.87453,-21.47242 c -13.18878,-0.0397 -22.70565,9.47721 -22.7453,22.666 -0.0398,13.93428 9.10447,23.38769 22.67393,23.42734 13.18086,0.0397 22.5629,-9.47721 22.60255,-22.98323 0.0397,-13.56153 -9.22343,-23.07046 -22.53118,-23.11011 z m -0.008,3.58469 c 10.80164,0.0317 18.12169,7.89106 18.08206,19.50956 -0.0321,11.55506 -7.39939,19.45407 -18.20104,19.42233 -10.99197,-0.0317 -18.18513,-7.84347 -18.15341,-19.77128 0.0397,-11.37264 7.47074,-19.19234 18.27238,-19.16061 z m 46.6029,-2.81741 -0.0792,26.62344 c -0.016,5.90045 0.53136,9.6041 1.78442,11.99918 2.44266,4.52844 7.26455,6.868 14.1722,6.88387 6.40802,0.0238 10.92853,-1.9113 13.58532,-5.79737 1.76063,-2.63299 2.45852,-6.2732 2.48232,-12.99051 l 0.0792,-26.62342 -4.33018,-0.0158 -0.0872,28.19371 c -0.008,4.39361 -0.3886,6.78076 -1.40373,8.66034 -1.76856,3.32297 -5.16291,5.01221 -10.31787,4.99636 -4.71085,-0.0158 -7.89899,-1.40375 -9.84203,-4.24294 -1.31649,-2.00647 -1.80819,-4.52051 -1.79234,-9.47721 l 0.0872,-28.19371 z m 62.47226,26.74835 6.46354,0.0158 c 4.40156,0.0158 7.72454,-0.72963 9.99271,-2.16509 3.45781,-2.18888 5.35324,-6.13838 5.36911,-11.03956 0.008,-4.45706 -1.54649,-8.16864 -4.42535,-10.50027 -2.45059,-1.95888 -5.95598,-2.8392 -11.29335,-2.85506 l -10.23855,-0.0318 -0.13497,44.83237 4.21121,0.0158 z m 0.008,-3.52124 0.0556,-19.52544 5.71011,0.0158 c 3.95742,0.008 6.21768,0.45204 7.91486,1.59407 2.44265,1.64166 3.81468,4.65533 3.80675,8.16864 -0.008,3.26746 -1.14996,5.9639 -3.22781,7.7166 -1.76855,1.4989 -4.09226,2.06198 -8.54932,2.04612 z M 83.399961,119.66471 l 4.338101,0.008 0.118996,-41.255619 12.744672,0.03966 0.016,-3.576742 -29.764003,-0.08718 -0.01597,3.576756 12.681222,0.03939 z m 48.793769,0.1385 4.3381,0.0162 0.0635,-21.603295 24.29973,0.07134 -0.0635,21.603285 4.33018,0.008 0.13497,-44.832352 -4.33018,-0.0081 -0.0634,19.652328 -24.29973,-0.07134 0.0634,-19.652327 -4.3381,-0.01625 z m 69.95885,0.20621 24.49008,0.0716 0.008,-3.57675 -20.2154,-0.0555 0.0552,-18.026535 17.39208,0.04792 0.008,-3.576756 -17.39208,-0.04792 0.0475,-16.075571 19.462,0.05537 0.016,-3.576757 -23.73665,-0.07134 z m 0,0"
       style="fill:#231f20;fill-opacity:1;fill-rule:nonzero;stroke:none;stroke-width:0.676753"
       aria-label="GR&#10;OUP&#10;T&#10;HE" />
  </g>
</svg>
